<mxfile host="app.diagrams.net" agent="Mozilla/5.0 (Windows NT 10.0; Win64; x64) AppleWebKit/537.36 (KHTML, like Gecko) Chrome/132.0.0.0 Safari/537.36 Edg/132.0.0.0" version="26.0.9">
  <diagram name="Page-1" id="9aXUuPnabDNwuOU0cajd">
    <mxGraphModel dx="1009" dy="598" grid="1" gridSize="10" guides="1" tooltips="1" connect="1" arrows="1" fold="1" page="1" pageScale="1" pageWidth="1169" pageHeight="827" math="0" shadow="0">
      <root>
        <mxCell id="0" />
        <mxCell id="1" parent="0" />
        <mxCell id="3uIWaJloscj8FYQmdpzR-1" value="" style="rounded=0;whiteSpace=wrap;html=1;movable=0;resizable=0;rotatable=0;deletable=0;editable=0;locked=1;connectable=0;" vertex="1" parent="1">
          <mxGeometry x="80" y="40" width="1000" height="640" as="geometry" />
        </mxCell>
        <mxCell id="3uIWaJloscj8FYQmdpzR-6" value="" style="group;fontFamily=Sarabun;fontSource=https%3A%2F%2Ffonts.googleapis.com%2Fcss%3Ffamily%3DSarabun;fontSize=14;" vertex="1" connectable="0" parent="1">
          <mxGeometry x="140" y="354" width="80" height="60" as="geometry" />
        </mxCell>
        <mxCell id="3uIWaJloscj8FYQmdpzR-4" value="" style="html=1;verticalLabelPosition=bottom;align=center;labelBackgroundColor=#ffffff;verticalAlign=top;strokeWidth=2;strokeColor=#0080F0;shadow=0;dashed=0;shape=mxgraph.ios7.icons.user;fontFamily=Sarabun;fontSource=https%3A%2F%2Ffonts.googleapis.com%2Fcss%3Ffamily%3DSarabun;fontSize=14;" vertex="1" parent="3uIWaJloscj8FYQmdpzR-6">
          <mxGeometry x="25" width="30" height="30" as="geometry" />
        </mxCell>
        <mxCell id="3uIWaJloscj8FYQmdpzR-5" value="นักศึกษา" style="text;html=1;align=center;verticalAlign=middle;resizable=0;points=[];autosize=1;strokeColor=none;fillColor=none;fontFamily=Sarabun;fontSource=https%3A%2F%2Ffonts.googleapis.com%2Fcss%3Ffamily%3DSarabun;fontSize=14;" vertex="1" parent="3uIWaJloscj8FYQmdpzR-6">
          <mxGeometry x="5" y="30" width="70" height="30" as="geometry" />
        </mxCell>
        <mxCell id="3uIWaJloscj8FYQmdpzR-7" value="" style="group;fontFamily=Sarabun;fontSource=https%3A%2F%2Ffonts.googleapis.com%2Fcss%3Ffamily%3DSarabun;fontSize=14;" vertex="1" connectable="0" parent="1">
          <mxGeometry x="125" y="170" width="120" height="60" as="geometry" />
        </mxCell>
        <mxCell id="3uIWaJloscj8FYQmdpzR-2" value="" style="html=1;verticalLabelPosition=bottom;align=center;labelBackgroundColor=#ffffff;verticalAlign=top;strokeWidth=2;strokeColor=#0080F0;shadow=0;dashed=0;shape=mxgraph.ios7.icons.user;fontFamily=Sarabun;fontSource=https%3A%2F%2Ffonts.googleapis.com%2Fcss%3Ffamily%3DSarabun;fontSize=14;" vertex="1" parent="3uIWaJloscj8FYQmdpzR-7">
          <mxGeometry x="45" width="30" height="30" as="geometry" />
        </mxCell>
        <mxCell id="3uIWaJloscj8FYQmdpzR-3" value="บุคคลภายนอก" style="text;html=1;align=center;verticalAlign=middle;resizable=0;points=[];autosize=1;strokeColor=none;fillColor=none;fontFamily=Sarabun;fontSource=https%3A%2F%2Ffonts.googleapis.com%2Fcss%3Ffamily%3DSarabun;fontSize=14;" vertex="1" parent="3uIWaJloscj8FYQmdpzR-7">
          <mxGeometry x="5" y="30" width="110" height="30" as="geometry" />
        </mxCell>
        <mxCell id="3uIWaJloscj8FYQmdpzR-11" value="ข้อมูลอาจารย์" style="text;html=1;align=center;verticalAlign=middle;resizable=0;points=[];autosize=1;strokeColor=none;fillColor=none;fontFamily=Sarabun;fontSource=https%3A%2F%2Ffonts.googleapis.com%2Fcss%3Ffamily%3DSarabun;fontSize=14;" vertex="1" parent="1">
          <mxGeometry x="405.5" y="140" width="100" height="30" as="geometry" />
        </mxCell>
        <mxCell id="3uIWaJloscj8FYQmdpzR-12" value="" style="shape=image;html=1;verticalAlign=top;verticalLabelPosition=bottom;labelBackgroundColor=#ffffff;imageAspect=0;aspect=fixed;image=https://cdn1.iconfinder.com/data/icons/nuvola2/48x48/actions/project_open.png" vertex="1" parent="1">
          <mxGeometry x="425.25" y="200" width="49.5" height="49.5" as="geometry" />
        </mxCell>
        <mxCell id="3uIWaJloscj8FYQmdpzR-13" value="ข้อมูลโครงงาน" style="text;html=1;align=center;verticalAlign=middle;resizable=0;points=[];autosize=1;strokeColor=none;fillColor=none;fontFamily=Sarabun;fontSource=https%3A%2F%2Ffonts.googleapis.com%2Fcss%3Ffamily%3DSarabun;fontSize=14;" vertex="1" parent="1">
          <mxGeometry x="395.5" y="249.5" width="110" height="30" as="geometry" />
        </mxCell>
        <mxCell id="3uIWaJloscj8FYQmdpzR-14" value="" style="editableCssRules=.*;html=1;shape=image;verticalLabelPosition=bottom;labelBackgroundColor=#ffffff;verticalAlign=top;aspect=fixed;imageAspect=0;image=data:image/svg+xml,PHN2ZyB4bWxucz0iaHR0cDovL3d3dy53My5vcmcvMjAwMC9zdmciIHhtbG5zOnY9Imh0dHBzOi8vdmVjdGEuaW8vbmFubyIgd2lkdGg9IjIwIiBoZWlnaHQ9IjIwIiB2aWV3Qm94PSIwIDAgMjAgMjAiPiYjeGE7CTxzdHlsZSB0eXBlPSJ0ZXh0L2NzcyI+JiN4YTsJLnN0MHtmaWxsOiM0Mjg1ZjQ7fSYjeGE7CTwvc3R5bGU+JiN4YTsJPHBhdGggY2xhc3M9InN0MCIgZD0iTTEwIDBhMTAgMTAgMCAxIDAgMTAgMTBoMEExMCAxMCAwIDAgMCAxMCAwem0wIDE4YTggOCAwIDAgMS00LjE4LTEuMThsMy41OC0yLjA3aDB2LTQuNUw1LjUxIDh2NC41MmwyLjc1IDEuNTktMy40NiAyQTggOCAwIDAgMSA2LjA4IDN2NGgwTDEwIDkuMjggMTMuOSA3IDEwIDQuNzcgNy4yNCA2LjM2VjIuNDdhOCA4IDAgMCAxIDEwLjMxIDQuNyA4LjEgOC4xIDAgMCAxIC41MSAyLjgzdi4wN0wxNC40NiA4aDBsLTMuOSAyLjI2djQuNTFsMy45LTIuMjVWOS4zNGwzLjQ1IDJBOCA4IDAgMCAxIDEwIDE4eiIvPiYjeGE7PC9zdmc+;" vertex="1" parent="1">
          <mxGeometry x="432" y="354" width="46" height="46" as="geometry" />
        </mxCell>
        <mxCell id="3uIWaJloscj8FYQmdpzR-17" value="" style="shape=image;html=1;verticalAlign=top;verticalLabelPosition=bottom;labelBackgroundColor=#ffffff;imageAspect=0;aspect=fixed;image=https://cdn2.iconfinder.com/data/icons/bitsies/128/Enter-128.png" vertex="1" parent="1">
          <mxGeometry x="290" y="354" width="46" height="46" as="geometry" />
        </mxCell>
        <mxCell id="3uIWaJloscj8FYQmdpzR-18" value="" style="image;aspect=fixed;perimeter=ellipsePerimeter;html=1;align=center;shadow=0;dashed=0;spacingTop=3;image=img/lib/active_directory/database_cube.svg;" vertex="1" parent="1">
          <mxGeometry x="590" y="167" width="45" height="50" as="geometry" />
        </mxCell>
        <mxCell id="3uIWaJloscj8FYQmdpzR-19" value="" style="image;aspect=fixed;perimeter=ellipsePerimeter;html=1;align=center;shadow=0;dashed=0;fontColor=#4277BB;labelBackgroundColor=default;fontSize=12;spacingTop=3;image=img/lib/ibm/infrastructure/mobile_backend.svg;" vertex="1" parent="1">
          <mxGeometry x="740" y="167" width="50" height="50" as="geometry" />
        </mxCell>
        <mxCell id="3uIWaJloscj8FYQmdpzR-20" value="" style="group;fontFamily=Sarabun;fontSource=https%3A%2F%2Ffonts.googleapis.com%2Fcss%3Ffamily%3DSarabun;fontSize=14;" vertex="1" connectable="0" parent="1">
          <mxGeometry x="860" y="170" width="120" height="60" as="geometry" />
        </mxCell>
        <mxCell id="3uIWaJloscj8FYQmdpzR-21" value="" style="html=1;verticalLabelPosition=bottom;align=center;labelBackgroundColor=#ffffff;verticalAlign=top;strokeWidth=2;strokeColor=#0080F0;shadow=0;dashed=0;shape=mxgraph.ios7.icons.user;fontFamily=Sarabun;fontSource=https%3A%2F%2Ffonts.googleapis.com%2Fcss%3Ffamily%3DSarabun;fontSize=14;" vertex="1" parent="3uIWaJloscj8FYQmdpzR-20">
          <mxGeometry x="45" width="30" height="30" as="geometry" />
        </mxCell>
        <mxCell id="3uIWaJloscj8FYQmdpzR-22" value="บุคคลภายนอก" style="text;html=1;align=center;verticalAlign=middle;resizable=0;points=[];autosize=1;strokeColor=none;fillColor=none;fontFamily=Sarabun;fontSource=https%3A%2F%2Ffonts.googleapis.com%2Fcss%3Ffamily%3DSarabun;fontSize=14;" vertex="1" parent="3uIWaJloscj8FYQmdpzR-20">
          <mxGeometry x="5" y="30" width="110" height="30" as="geometry" />
        </mxCell>
        <mxCell id="3uIWaJloscj8FYQmdpzR-25" value="" style="shape=image;verticalLabelPosition=bottom;labelBackgroundColor=default;verticalAlign=top;aspect=fixed;imageAspect=0;image=data:image/png,iVBORw0KGgoAAAANSUhEUgAAAIAAAACACAYAAADDPmHLAAAACXBIWXMAAAdhAAAHYQGVw7i2AAAAGXRFWHRTb2Z0d2FyZQB3d3cuaW5rc2NhcGUub3Jnm+48GgAAERlJREFUeJztnXt8VNW1x39rz0kyj5CHQJB3UBF5qHhBiuQBKEXQy7XqLW1RtGK1VT/203qttibAEQJqtbUP7f1o1Xp9I7VyEUERCZJJgsqtj0ACIiWGQCAPCCEzk2TmnHX/SIjkOa8z58xMzvfz8Q9nzt7rR/aac87ee621CXEHk1V2jhM+TGIS5wmoYxkYQxBDmXkwCIMBWAEkAnB0NGoG4AXQAkYDE+oFUKsSHQZzJREdUlVfeUvB7ENG/asiBRktIFxseSUjIdQsAc5i0OUMTCFgUITMNQEoI8InKqiYfEqJe21uTYRs6ULsOcC9m5Mc6WlzAF4I5oUMXGiwonIm2iJU9T2XdM5OyJPbDNYTFLHhAHfuTrBntHwXwGIQvgcg1WhJfXACoA3EWOfaf+RDrF+sGC3IH1HtADZ51yjh897ERPcAGG20niCpYaKXWKjPtsg5/zJaTF9EpQPY8pzZQtDPGXwDAIvResJEBWgzsfpHV0HONqPFdCeqHMC+omgRmFYCmGa0lohA2AVglXtV9hajpZwhKhzAkV80jwXWgGmG0Vp0gbhEqMhrLsjZYbgUI43bZecI9tGjRLzUSB3GQZtY9d3tWTP7sGEKDLEqF0o2n3QPiFZHcM4eK7iIebVL8v0O8lyf3sZ1dwDrcmeOYPwFhCl6245qGJ8z0d2e1VmleprVzwHkQsmuSvlgWg5A6GY3tmAm+q2n4kieXmsIujiATd41Sii+1xjI0cNerEOgj9jCS9xy9tHI24owjvyieUz0CoBhkbYVZ9QR8y2ugpz3Imkkcg4gs7ApxWsIeDCiduIbFYQ17lVZKwHiSBiIzMDIexMdvsYXmfhHEel/gMHAK57j1mV4drpX6761d4D733fYbY6/A1iged8Dm232VtxQ/9vs01p2qqkDpMgl5/gUdROAK7Ts16STTy0W7zWn5bn1WnWomQPYZOcYKNhKwASt+jTplXK2SFd75JnVWnSmiQMMkguH+JSEIgIu0qI/k/4h0AGyILtZzqoNt6/wF2Tk3XZFSdhoDr5+MHi8qqrvQC5MDrev8Bzgzt0JdqXlLZjPfP1hmmFXEt6GvDcxnG7CcAAm+7CW52C+7RvJPJty8m+QOeRxlEJtaFtevBbALaG2P5upw5Pxs5nDkTU2BefYQpYUM7T4VJTXuvH6F3V444taqGEs8RCwxK4WH3QDK0JsHzz2Fc6FYLwbavtO4wQsv3IMHsgdDRqga4WlVU340ev7UOcKa41HJaaFroKsrcE2DPrPbpN3jSLF9xmAIcG27c6vckdBnjc23G5int3VzZj/QhlafWo43dTCgsuC3UAK7tkhF0pC8b0GDQY/M92Kh+aOCbebuGD6qGTccfm54XaTQQq9hu+/GVQQbVAOYFMSVmu1pbtk6lAkWgbofb8Xbp0W/mYpg2fbLxoR1LtAwA5gXe7MIeCB4GX1zmUjwp7CxhWTMuywJWgSJ5Nvy3NmB3pxYK/ccqEkFPwZGkbypFn1e9uvamzFtq9P6mbPH+OH2JCT2TO5Kd0mweMNO7NMQOA5yIVTIc9t8XdxQKPgUBJ+wcCl4SoziqLKU/h90RGjZXRy+ahBvTqAVg9EAibY1YSHApka+rXZ8dZfAUDTe/YHt1+MWWNTtOwy5rnwiU9xpEmz3NI2hZUprQWzD/R3kd9bOineJ6Hx4JvoQqKFLI/5u6hfB3DkF80D6D+102SiM9cn5xfN6e+Cfh2AiQo0lWOiO6rAmv6+79MB7PnO/wDwHc0VmegL0yxHflGfG3Z9zwIEliMicaj60+JTUVHrNlpGJyNSEjEsOaxd3KBgQSsB9Bpe3qsDJK9wzlUZ0yOqSkf+e1cN8rdWGi2jkxmjB6Hwjkv0M8iYactzZnvWZDu7f9WrA6iM/4q8quDYXd2MjRUN+KreA5/KGJOWhPnj0zF/fDqEn8nsL7NH4jYNllq1wpGof80LErgfgH8HSMovPh/ghbqoCoB6lxd3bfgam/efwIVDbJg2chASLYRdVU346yc1mJThwHM3jsfF5zr67SdtAMQZ+GGRNf+jcd1L3fX4q1gE3w6OjuTNmtNt+O5zZSACPvzJJZg5pmsm+f46D+579yCueq4Mby+dhCxzYak/hCBpGYDlXT7scolcKIFxq56q+kJlYOm6/UiSBIp/NrXH4APAhKE2bLxlMq4en46b3tiHkx7d0+tjDL4dcmGXH30XB7CriVcDGKGrpj7YtK8Bn1afxss/mIAUa9/PTIsgPHPDeBABfyqJnvX+KGW4Q0266uwPut4BmBfrKqcf1n9Zj9xxqZiUYfd7rT1B4KczhuOtMs0SZuIW7jbG394O7t2cBOA6vQX1xcETHlw/OfDAo6kjkrF6exWY0SO+8OnSo3hgS/SU+c3JTMV7y4wqkMLXQ95715mKpp0O4EhPm8OsRk0FzlYfwyoF/i46xJ4AAGhTVCR1a7f0smEB3Un0YnRakpHm0x1qQ44L+BDoMguInqkfAIxKTcTBE56Ar69sbMFQRwISLT2dJsVqwdzz07SUF9OoLBagwwG+/WsxrjFKUG9ceX4a3v/qJNqUwNajN5Y3YM55qQM2vDwYCOj8sQugveQ6g8cbJ6knN1+WgaZWBX8p9R/lXFrVhA3lDbh7ZlRMYGKByfaHdg4HztwBLGrAQYR6MdiegIL5mVi57Ru89nnfSbD/PNKMJW/sw4+nDcOM0QO95GDgsGSZBXS8AwjmWRyFZXxumzYMza0K7nz7ANaX1eOn3xmOiRl2JCcKfFXvwZtf1uPF/zuGG6cMxZPXnme03JhCgLMAvCUBAIMuN1hPn9w7awQuHe7A2sLD+P6r5V3y6CZm2PHUdRdgyaUZuj/7H91xGJv2nQip7bSRyfjjovM1VhQczJgBABJkFlCKLzZUjR9yx6Uid1wqGj2+zt3AselWjEzRb0+9O1mZKSEntkwYGhVT0ikAk5SE0vMQI0GfaTYpap7zOZmpvYZ2xxCp1rySMZJFVSYaUcbvD8VH8PoXdbrbDYRECyEz3Yp5F6RhYhQtIGmNsPAkiVmMIwNiv97teH4SAZMzHBiTlhTUyl8kcXsVfHDgJH7z/iHcOHkInr7uAiQnxfrBJb2gUqbUfq6eMTOAGyYPwar5YzEu3WqIfX8UVZ7C3Ru+xqKX9mLzj6dolbsXNbDgcYIBQ3K0H5w9Gi//YELUDj7Q/pz/4PaLUdXYij8Ux99Ws2CMFUSUobfh2eelYvmVsVEb4NxBicibOxpPlR6FEk4tlyhEBYYKZgzW2/CvckbF1Jr9oomD0ejxYc/x6Akt1wJiDBYAztHTaIKFkB1j06czW81NrXEWckbtDqDrPGewPQEJMVYZ5PCpVgDt+ftxhl2g/RRt3YixsQcAvPp5LUalJmFyRv+h5zFIku4OEGvsrm7G4zur8eDs2HpvCZCkuLunaUWjx4eXP6tFwfYqXDdpMJZND7uKVzTCEoA2ADajlWjNgr/tQXVja0htWxUVtc1epFolLL9qDO6J30CT1rh1gCOnWnHF2BRc0UtCiT/sCRZkplsxfVQyJH+Jh7FNqwTABSC25mUBkp2Zglv/LXqSQqMPdgsADUbLMDEIpnrBpgNEDY0tuhwW2gkTNwgBiopNebdXxeM7q8HxtdweMF83eOBq09cBBFO9UAlVulrtg321bsjbvgm3bHrM8mo/kc+RQhVUKcBcqbtlky7sr/Pg6dIa3e0Sc6UgoujJmhyA7Ktz44ZXynW//QMAkTgkqaqvXFAchjtFMYrKqKhrPzLmmY9r4PGGdVBEyKhC7JVaCnIr7cuLmwDEXX2VX793CL945yDsBhRl6o/TrUo0BJec9Mgzq6X2U6mdZQCyjFakNU0d06o2s3RMDwjYA3TkBhLhE2PlmOiNStgFdDiACio2Vo6J3lDHmLffAXxKibFyTHSGhbd9zAUAuNfm1gBcYawmEx35svmR3DrgrAohBGzRw/Ipnde7TXrCRJ2Fo88uEaOLAzS3KfiqPvDaP93ZeuAknvlY/1WzeMKiqj0dwFVr+whAaAnvQfLEzuqQ224/2IiNFeYGZhjUN0u+zqLR394Bnp3uBWiDHgpe/bwWj+44HNahySahQv+APLdzYaRLUCgx1jFhmR4yVm+vwobyBvzwkqHIPMeK8jjLuolWiJQ3z/7/Lg7g2n/kQ/tFIw4DGK2HmLJjLpQdc+lhygQAwNWuimM7zv6ka77z+sUKQP+jpyQTHSE83z7G39Ij4V21iOcBGLM9ZRJJFBb0QvcPezhAi3xFJUAbdZFkoiP8tkfO7hH91WvJC1b5d5EXZKInDPH73j7v1QE8a7Kd6NgtMokDCE7P6qzS3r7qr+jNqgjJMdEZgir39V2fDuBelb2FgKKIKDLRD4LTtSr3w76+7rfsFTH7PX/eJLphBb/p7/t+HaC5IGcHMb2urSQTvSDGut5OCz0b/4XvpLb7AJzSSpSJbngUyfJrfxf5dQCXPPcYM6/URpOJbjAeaV/T6Z+ASl969tc8BeCzcDWZ6ARjj1tKfyyQSwOrfbp+scKge2AuEccCCjPuOHMsnD8CLn7bsZBQELKsADnVEn4MPzNQ2zwwk0zBeNizJjvgRbygqh+7LVkPA9gWtKggKK1qCruPfXVuNBuQa2c0DBS69x9dG0yb4Mpfy6SSIt0M4FhQ7YLgTyVH4Q3wqLi+eDyMkLMY5jgp6k3dt3v9EXT9c9famccFYQmAiPzEKmrduPt/v+7TCU61KH3m1jG3D/66L6Oi5oWeqMR8c3t4f3CElDXZ9tELlQlzlkkAZofS3h9lx1zY8tUJpFglpFgt8HhVlFY1IW/rN1hfVoea023YeuAkkpMkJEmExhYF2w824r7N/8JL/zweCUnRDWOluyDnxVCahlEDjcme73weRLeF3odJuDDTy56CWbe2J/kGTxhHYBC799fcoVcksUlv0CaP1LYs1MEHtDgt6pclNvsgdSsYUXf6aFxD2OV2u+bhiavDiqoN/xCcJ2d5klqt/w7Gl2H3ZRIoeyUhrg138AEtHADAycemn2JJuhZAuRb9mfQDYw8smN8kz9Iki0uzY7A88szqBC9nAzBrDUSOjy2Sd65bzvZ/pHqAaF8JWd5ttyst6wFco3nfA5t33BbrDyFP1zSFSvuD8OTpbrfFex3QMwbdJGRech+33qj14AMRPTOWyb6i+GEw8hAJRxsYKGA87C7IKghnqtcfES+Gn5xffKVK/AqA4ZG2FWfUEtNSV0HW1kgaifgvs7kga7uw0FQAH0TaVrzAQCEUdWqkBx8IcS8gWNp2vODyDlvwWsLQZAYoB+YjoS8UEK/27Kv5ifeZa8LfFw8A3c9DseU5syHwVwIu0tt2VMPYw4w7ggnm0AJjDsS5d3OSPT0lD4wHACQZoiF68IDxiFtKfyzQMC4tMfREJFveR6NB0hoiXmqkDuOgTSr7ft5SMNuwiu1RcSRWcn7RHFVgDZhmGa1FD4iwU1WQ5y9pQxctRgs4G/sK50IAK8CYabSWiEBwksoPuwpyIhpXGQxR5QBnsOU5s0ngfgCLEPszBhXA26ziCb1f8AIhKh3gDLa8kpGClJuZ6C4AY43WEyRHmehlVn3PGPmM90dUO0AncqHkUJOuYubFAF8PIN1oSX3QAOZ/kOB1ropjO4KN0DWC2HCAs5H3Jjp8J3JVIRYQ8wIAkw1W9AUTvWcBv98svEVnF2GMBWLPAbrheGjXMFX4soRANjNmAJiCyB2F20hAmUr0CQFFwquUnKm6HavEvAP0hlUuzRSqMhHM4xg0TjBGq4RhBAxG+382BiQCzpws3YT2PAc3GA1MaBBMx1RSDxPoEJE4pAq1orcqW7HO/wOcnallq0QhugAAAABJRU5ErkJggg==;" vertex="1" parent="1">
          <mxGeometry x="425.88" y="90.75" width="49.25" height="49.25" as="geometry" />
        </mxCell>
        <mxCell id="3uIWaJloscj8FYQmdpzR-26" value="&lt;font style=&quot;font-size: 14px;&quot; data-font-src=&quot;https://fonts.googleapis.com/css?family=Sarabun&quot; face=&quot;Sarabun&quot;&gt;ฐานข้อมูล&lt;/font&gt;" style="text;html=1;align=center;verticalAlign=middle;resizable=0;points=[];autosize=1;strokeColor=none;fillColor=none;" vertex="1" parent="1">
          <mxGeometry x="572.5" y="209.75" width="80" height="30" as="geometry" />
        </mxCell>
        <mxCell id="3uIWaJloscj8FYQmdpzR-27" value="&lt;font style=&quot;font-size: 14px;&quot; data-font-src=&quot;https://fonts.googleapis.com/css?family=Sarabun&quot; face=&quot;Sarabun&quot;&gt;ระบบบริหาร&lt;/font&gt;&lt;span style=&quot;font-size: 14px; font-family: Sarabun; background-color: transparent; color: light-dark(rgb(0, 0, 0), rgb(255, 255, 255));&quot;&gt;จัดการ&lt;/span&gt;" style="text;html=1;align=center;verticalAlign=middle;resizable=0;points=[];autosize=1;strokeColor=none;fillColor=none;" vertex="1" parent="1">
          <mxGeometry x="700" y="210.75" width="130" height="30" as="geometry" />
        </mxCell>
        <mxCell id="3uIWaJloscj8FYQmdpzR-28" value="&lt;font face=&quot;Sarabun&quot;&gt;&lt;span style=&quot;font-size: 14px;&quot;&gt;เข้าสู่ระบบ&lt;/span&gt;&lt;/font&gt;" style="text;html=1;align=center;verticalAlign=middle;resizable=0;points=[];autosize=1;strokeColor=none;fillColor=none;" vertex="1" parent="1">
          <mxGeometry x="273" y="399" width="80" height="30" as="geometry" />
        </mxCell>
        <mxCell id="3uIWaJloscj8FYQmdpzR-29" value="&lt;font data-font-src=&quot;https://fonts.googleapis.com/css?family=Sarabun&quot; style=&quot;font-size: 14px;&quot;&gt;หน้าสำหรับนักเรียน&lt;/font&gt;" style="text;html=1;align=center;verticalAlign=middle;resizable=0;points=[];autosize=1;strokeColor=none;fillColor=none;fontFamily=Sarabun;fontSource=https%3A%2F%2Ffonts.googleapis.com%2Fcss%3Ffamily%3DSarabun;" vertex="1" parent="1">
          <mxGeometry x="390.5" y="399" width="130" height="30" as="geometry" />
        </mxCell>
      </root>
    </mxGraphModel>
  </diagram>
</mxfile>
